<svg width="186" height="100" viewBox="0 0 186 100" fill="none" xmlns="http://www.w3.org/2000/svg">
<path fill-rule="evenodd" clip-rule="evenodd" d="M30.8706 1.69276C28.9456 2.68476 26.1056 5.52176 24.5596 7.99676C19.2676 16.4688 1.85462 45.4948 0.665618 47.8248C-1.14238 51.3708 0.720621 53.3958 6.40462 54.0628C10.8716 54.5868 11.7866 55.2178 18.7206 62.5628C22.8396 66.9268 31.1406 76.0298 37.1676 82.7908C43.5226 89.9218 49.7346 95.9068 51.9576 97.0408C59.0486 100.659 68.0176 99.1598 72.1246 93.6698C73.4296 91.9248 79.1766 82.6218 84.8956 72.9968C90.6146 63.3718 95.6986 55.2148 96.1926 54.8698C98.4076 53.3238 101.882 56.4298 118.93 75.1988C138.066 96.2648 141.455 98.9298 149.171 98.9748C154.007 99.0028 158.113 96.8758 161.193 92.7478C164.455 88.3758 184.43 54.0458 185.259 51.3878C186.053 48.8388 184.795 47.7538 179.182 46.1498C175.743 45.1668 172.972 42.7688 163.682 32.7338C135.231 1.99876 132.915 -0.00323486 125.804 -0.00323486C120.601 -0.00323486 116.042 2.83876 113.163 7.87676C105.429 21.4118 90.6016 45.9968 90.1736 45.9968C88.4686 45.9968 82.1166 39.8528 66.4066 23.0078C56.6076 12.4998 47.3106 3.24176 45.7476 2.43276C40.9766 -0.0342383 34.8146 -0.340236 30.8706 1.69276ZM53.2016 20.7468C60.3826 28.3098 70.6316 38.8958 75.9786 44.2728L85.7006 54.0498L83.1996 58.5228C81.8246 60.9838 80.1756 62.9918 79.5356 62.9858C78.8946 62.9798 75.7316 59.9428 72.5066 56.2358C69.2806 52.5298 63.6486 46.3468 59.9916 42.4968C56.3336 38.6468 49.5456 31.2218 44.9076 25.9968C40.2696 20.7718 35.3266 15.2238 33.9226 13.6688L31.3706 10.8398L33.7316 8.91876C35.0296 7.86176 37.0046 6.99676 38.1196 6.99676C39.4256 6.99676 44.7966 11.8938 53.2016 20.7468ZM128.731 7.92177C129.681 8.43077 138.075 17.0928 147.384 27.1718C156.693 37.2508 166.235 47.4018 168.59 49.7298C170.945 52.0578 172.871 54.4718 172.871 55.0938C172.871 56.5348 168.69 64.0198 167.937 63.9258C167.626 63.8878 156.658 52.0748 143.565 37.6758L119.759 11.4968L122.371 9.24677C125.262 6.75577 126.191 6.56277 128.731 7.92177ZM59.6566 53.9298L75.8076 71.3618L73.6796 74.9298C72.5086 76.8918 71.2426 78.8548 70.8656 79.2918C70.0106 80.2838 22.8706 29.3978 22.8706 27.4828C22.8706 27.0708 23.8416 25.1618 25.0286 23.2418L27.1856 19.7508L35.3456 28.1238C39.8326 32.7288 50.7726 44.3418 59.6566 53.9298ZM149.309 55.3728L164.246 71.2258L161.92 75.6108C160.64 78.0228 159.25 79.9968 158.83 79.9968C158.41 79.9968 152.06 73.3648 144.719 65.2588C137.378 57.1528 126.758 45.5728 121.121 39.5258C115.484 33.4788 110.871 28.1798 110.871 27.7498C110.871 27.3198 111.883 25.3998 113.121 23.4818L115.371 19.9948L124.871 29.7578C130.096 35.1278 141.093 46.6548 149.309 55.3728ZM29.2206 47.7468C57.5356 77.3068 67.0266 88.1038 65.8946 89.4678C64.3096 91.3778 60.3986 92.1478 57.6306 91.0958C56.3216 90.5978 49.2046 83.5098 41.8126 75.3438C34.4216 67.1778 24.8136 56.7928 20.4626 52.2648L12.5506 44.0328L14.3626 40.0148C15.3586 37.8048 16.5776 35.9968 17.0696 35.9968C17.5616 35.9968 23.0296 41.2838 29.2206 47.7468ZM139.298 70.8958L155.221 88.2948L152.834 90.2278C150.078 92.4598 145.697 92.0358 142.549 89.2348C141.475 88.2788 133.747 79.8468 125.376 70.4968C117.004 61.1468 108.057 51.5668 105.493 49.2078L100.832 44.9198L103.518 40.3358L106.204 35.7528L114.789 44.6248C119.511 49.5048 130.539 61.3268 139.298 70.8958Z" fill="#126FFF"/>
</svg>
