<svg width="554" height="177" viewBox="0 0 554 177" fill="none" xmlns="http://www.w3.org/2000/svg">
<path fill-rule="evenodd" clip-rule="evenodd" d="M396.663 1.24678C392.51 4.51078 395.143 11.9968 400.444 11.9968C403.283 11.9968 406.871 8.77178 406.871 6.21978C406.871 1.20378 400.603 -1.85022 396.663 1.24678ZM206.871 34.9968V68.9968H228.871H250.871V64.4968V59.9968H233.871H216.871V30.4968V0.996777H211.871H206.871V34.9968ZM30.8706 8.69278C28.9456 9.68478 26.1056 12.5218 24.5596 14.9968C19.2676 23.4688 1.85462 52.4948 0.665618 54.8248C-1.14238 58.3708 0.720621 60.3958 6.40462 61.0628C10.8716 61.5868 11.7866 62.2178 18.7206 69.5628C22.8396 73.9268 31.1406 83.0298 37.1676 89.7908C43.5226 96.9218 49.7346 102.907 51.9576 104.041C59.0486 107.659 68.0176 106.16 72.1246 100.67C73.4296 98.9248 79.1766 89.6218 84.8956 79.9968C90.6146 70.3718 95.6986 62.2148 96.1926 61.8698C98.4076 60.3238 101.882 63.4298 118.93 82.1988C138.066 103.265 141.455 105.93 149.171 105.975C154.007 106.003 158.113 103.876 161.193 99.7478C164.455 95.3758 184.43 61.0458 185.259 58.3878C186.053 55.8388 184.795 54.7538 179.182 53.1498C175.743 52.1668 172.972 49.7688 163.682 39.7338C135.231 8.99878 132.915 6.99678 125.804 6.99678C120.601 6.99678 116.042 9.83877 113.163 14.8768C105.429 28.4118 90.6016 52.9968 90.1736 52.9968C88.4686 52.9968 82.1166 46.8528 66.4066 30.0078C56.6076 19.4998 47.3106 10.2418 45.7476 9.43277C40.9766 6.96577 34.8146 6.65978 30.8706 8.69278ZM53.2016 27.7468C60.3826 35.3098 70.6316 45.8958 75.9786 51.2728L85.7006 61.0498L83.1996 65.5228C81.8246 67.9838 80.1756 69.9918 79.5356 69.9858C78.8946 69.9798 75.7316 66.9428 72.5066 63.2358C69.2806 59.5298 63.6486 53.3468 59.9916 49.4968C56.3336 45.6468 49.5456 38.2218 44.9076 32.9968C40.2696 27.7718 35.3266 22.2238 33.9226 20.6688L31.3706 17.8398L33.7316 15.9188C35.0296 14.8618 37.0046 13.9968 38.1196 13.9968C39.4256 13.9968 44.7966 18.8938 53.2016 27.7468ZM128.731 14.9218C129.681 15.4308 138.075 24.0928 147.384 34.1718C156.693 44.2508 166.235 54.4018 168.59 56.7298C170.945 59.0578 172.871 61.4718 172.871 62.0938C172.871 63.5348 168.69 71.0198 167.937 70.9258C167.626 70.8878 156.658 59.0748 143.565 44.6758L119.759 18.4968L122.371 16.2468C125.262 13.7558 126.191 13.5628 128.731 14.9218ZM270.854 19.4688C265.595 21.1598 260.229 26.2618 258.924 30.8118L258.011 33.9968H262.915C267.327 33.9968 267.972 33.7028 269.334 31.0678C271.076 27.7008 273.57 26.6698 279.76 26.7578C285.478 26.8388 288.779 29.9288 289.125 35.5238L289.371 39.4968L278.606 40.1638C266.952 40.8858 263.247 42.2608 259.533 47.2428C254.994 53.3328 257.93 64.7508 264.92 68.1988C271.221 71.3058 281.484 69.9378 286.459 65.3278C289.673 62.3488 289.871 62.3878 289.871 65.9968C289.871 68.9088 290.01 68.9968 294.621 68.9978L299.371 68.9988L299.089 49.7478C298.808 30.6168 298.789 30.4718 296.075 26.5448C294.573 24.3708 291.885 21.7408 290.102 20.6998C285.839 18.2098 276.605 17.6198 270.854 19.4688ZM329.371 19.3998C327.721 20.1278 325.514 21.6848 324.466 22.8598C321.961 25.6698 320.871 25.5598 320.871 22.4968C320.871 20.1638 320.538 19.9968 315.871 19.9968H310.871V44.4968V68.9968H315.871H320.871V53.4648C320.871 36.4638 321.731 32.6288 326.199 29.7008C330.265 27.0368 335.294 27.5098 339.105 30.9138L342.371 33.8318L342.72 51.4138L343.069 68.9968H347.97H352.871V52.4468C352.871 34.3758 353.58 31.3618 358.343 29.1918C361.606 27.7048 366.362 27.6538 369.021 29.0768C372.913 31.1598 373.871 35.8778 373.871 52.9648V68.9968H378.949H384.027L383.699 50.2468C383.407 33.5638 383.141 31.0558 381.284 27.4968C375.808 17.0008 362.531 15.1368 354.001 23.6668L350.531 27.1368L348.219 24.1828C344.055 18.8608 335.505 16.6918 329.371 19.3998ZM436.878 19.5898C434.957 20.4228 432.37 22.0588 431.128 23.2248L428.871 25.3458V22.6708C428.871 20.0958 428.667 19.9968 423.371 19.9968H417.871V44.4968V68.9968H423.307H428.742L429.057 51.4128L429.371 33.8278L432.637 30.9128C436.21 27.7218 441.625 27.0168 446.276 29.1358C450.931 31.2568 451.871 35.2498 451.871 52.8978V68.9968H456.871H461.871V50.9648C461.871 30.9328 461.345 28.5638 455.74 23.3808C450.041 18.1108 443.378 16.7708 436.878 19.5898ZM484.742 19.5618C479.26 21.2498 472.871 27.6748 472.871 31.4998C472.871 33.8218 473.213 33.9968 477.763 33.9968C482.131 33.9968 482.721 33.7328 483.274 31.5258C483.616 30.1668 484.808 28.5658 485.925 27.9678C488.561 26.5568 497.079 26.5028 499.654 27.8808C501.774 29.0148 503.871 33.8008 503.871 37.5048C503.871 39.6158 503.391 39.7368 493.072 40.2258C481.394 40.7788 477.532 42.0688 473.959 46.6118C471.349 49.9298 471.15 57.6748 473.545 62.7228C476.676 69.3198 487.909 71.9828 496.371 68.1338C498.571 67.1328 501.046 65.4968 501.871 64.4988C503.284 62.7888 503.4 62.8528 503.876 65.5908C504.342 68.2728 504.754 68.5208 509.221 68.8058L514.06 69.1138L513.697 50.3058C513.298 29.6748 512.795 27.6348 506.876 22.6548C501.377 18.0268 493.362 16.9068 484.742 19.5618ZM545.998 19.4828C543.593 20.2398 540.33 22.0988 538.748 23.6148L535.871 26.3708V23.1838V19.9968H530.371H524.871V44.4968V68.9968H530.371H535.871V52.8968V36.7968L539.174 33.4938C541.846 30.8218 543.577 30.0528 548.223 29.4718L553.967 28.7548L553.669 23.6348C553.328 17.7708 552.635 17.3958 545.998 19.4828ZM395.871 44.4968V68.9968H400.871H405.871V44.4968V19.9968H400.871H395.871V44.4968ZM59.6566 60.9298L75.8076 78.3618L73.6796 81.9298C72.5086 83.8918 71.2426 85.8548 70.8656 86.2918C70.0106 87.2838 22.8706 36.3978 22.8706 34.4828C22.8706 34.0708 23.8416 32.1618 25.0286 30.2418L27.1856 26.7508L35.3456 35.1238C39.8326 39.7288 50.7726 51.3418 59.6566 60.9298ZM149.309 62.3728L164.246 78.2258L161.92 82.6108C160.64 85.0228 159.25 86.9968 158.83 86.9968C158.41 86.9968 152.06 80.3648 144.719 72.2588C137.378 64.1528 126.758 52.5728 121.121 46.5258C115.484 40.4788 110.871 35.1798 110.871 34.7498C110.871 34.3198 111.883 32.3998 113.121 30.4818L115.371 26.9948L124.871 36.7578C130.096 42.1278 141.093 53.6548 149.309 62.3728ZM29.2206 54.7468C57.5356 84.3068 67.0266 95.1038 65.8946 96.4678C64.3096 98.3778 60.3986 99.1478 57.6306 98.0958C56.3216 97.5978 49.2046 90.5098 41.8126 82.3438C34.4216 74.1778 24.8136 63.7928 20.4626 59.2648L12.5506 51.0328L14.3626 47.0148C15.3586 44.8048 16.5776 42.9968 17.0696 42.9968C17.5616 42.9968 23.0296 48.2838 29.2206 54.7468ZM139.298 77.8958L155.221 95.2948L152.834 97.2278C150.078 99.4598 145.697 99.0358 142.549 96.2348C141.475 95.2788 133.747 86.8468 125.376 77.4968C117.004 68.1468 108.057 58.5668 105.493 56.2078L100.832 51.9198L103.518 47.3358L106.204 42.7528L114.789 51.6248C119.511 56.5048 130.539 68.3268 139.298 77.8958ZM289.394 50.7288C288.42 55.9158 287.239 57.8018 283.557 60.0468C278.919 62.8748 272.428 62.6448 269.326 59.5418C267.976 58.1918 266.871 56.4138 266.871 55.5898C266.871 52.4738 269.291 48.9318 271.792 48.3858C273.211 48.0758 274.821 47.6718 275.371 47.4878C275.921 47.3048 279.459 47.1188 283.232 47.0758L290.094 46.9968L289.394 50.7288ZM503.871 49.5468C503.871 56.1768 497.504 61.9868 490.232 61.9928C479.745 62.0028 477.803 50.3928 487.895 48.0188C489.807 47.5698 494.184 47.1558 497.621 47.0988C503.68 46.9998 503.871 47.0748 503.871 49.5468ZM334.526 88.8258C332.301 91.2848 332.439 94.5648 334.871 96.9968C339.269 101.395 345.643 97.8178 344.989 91.3178C344.581 87.2568 337.478 85.5638 334.526 88.8258ZM206.871 121.997V155.997H211.871H216.871V121.997V87.9968H211.871H206.871V121.997ZM412.871 121.997V155.997L418.121 155.993L423.371 155.99V139.012V122.034L426.421 118.985C432.048 113.359 441.261 114.07 444.617 120.388C445.949 122.897 446.278 126.634 446.319 139.742L446.371 155.988L451.121 155.992L455.871 155.997L455.855 137.247C455.839 119.708 455.694 118.239 453.6 114.497C448.295 105.013 433.652 103.086 425.56 110.806L422.75 113.488L423.06 100.74L423.371 87.9928L418.121 87.9948L412.871 87.9968V121.997ZM470.706 100.495L471.042 106.997H466.956H462.871V110.937C462.871 114.767 462.975 114.885 466.621 115.187L470.371 115.497L470.871 132.184L471.371 148.872L474.218 151.84C477.428 155.187 484.608 157.433 489.009 156.467C491.632 155.891 491.871 155.469 491.871 151.418V146.997H487.571C485.206 146.997 482.731 146.457 482.071 145.797C481.246 144.972 480.871 139.975 480.871 129.797V114.997H486.871H492.871V110.997V106.997H486.871H480.871V100.497V93.9968L475.621 93.9948L470.371 93.9928L470.706 100.495ZM247.871 107.118C246.496 107.664 244.133 109.295 242.621 110.741L239.871 113.371V110.184C239.871 107.026 239.825 106.997 234.871 106.997H229.871V131.497V155.997H234.871H239.871L239.895 142.247C239.922 126.471 240.771 121.642 244.105 118.308C249.066 113.348 258.419 114.455 261.668 120.388C263.075 122.956 263.371 126.326 263.371 139.745V155.993L268.731 155.995L274.09 155.997L273.714 137.747C273.359 120.557 273.193 119.236 270.854 114.997C266.739 107.539 256.038 103.87 247.871 107.118ZM293.272 107.902C285.119 111.605 281.73 120.59 286.07 126.997C288.863 131.121 293.096 133.31 302.484 135.487C311.322 137.537 313.871 139.21 313.871 142.963C313.871 147.085 310.691 149.002 303.898 148.975C298.032 148.951 295.084 147.409 292.953 143.247C291.992 141.371 290.976 140.997 286.836 140.997C284.105 140.997 281.871 141.236 281.871 141.529C281.871 142.949 285.146 149.643 286.659 151.317C287.601 152.358 290.089 154.087 292.189 155.159C305.822 162.116 323.882 154.498 323.867 141.797C323.859 134.317 318.004 129.532 305.846 127.068C299.405 125.763 293.871 122.703 293.871 120.446C293.871 112.95 306.557 110.968 311.808 117.643C313.489 119.781 314.741 120.264 318.873 120.369C322.68 120.466 323.771 120.175 323.383 119.165C323.101 118.433 322.871 117.455 322.871 116.992C322.871 115.076 317.174 109.585 313.412 107.877C308.054 105.443 298.662 105.455 293.272 107.902ZM368.382 107.598C359.314 110.917 353.851 119.9 353.893 131.425C353.945 145.798 362.672 154.997 376.255 154.997C382.135 154.997 383.143 154.672 387.431 151.399L392.144 147.802L391.678 152.659C390.807 161.72 386.683 166.676 379.174 167.683C374.266 168.342 368.17 165.747 366.617 162.339C365.707 160.342 364.82 159.997 360.602 159.997C355.713 159.997 355.662 160.029 356.308 162.747C359.605 176.623 382.837 181.387 394.716 170.622C400.133 165.713 400.334 164.542 400.871 134.746L401.371 106.995L396.621 106.996C391.952 106.997 391.871 107.051 391.871 110.171V113.346L389.607 111.219C384.29 106.223 376.001 104.809 368.382 107.598ZM510.272 107.902C504.497 110.525 501.352 115.278 501.444 121.244C501.562 128.949 505.311 131.907 519.371 135.39C528.437 137.635 530.871 139.238 530.871 142.963C530.871 147.085 527.691 149.002 520.898 148.975C515.032 148.951 512.084 147.409 509.953 143.247C508.992 141.371 507.976 140.997 503.836 140.997C498.393 140.997 498.069 141.512 500.492 146.297C502.805 150.866 504.84 152.939 509.189 155.159C522.702 162.055 540.871 154.507 540.871 141.997C540.871 138.461 538.934 134.243 536.223 131.873C534.263 130.159 526.715 127.556 520.871 126.577C518.946 126.255 515.88 125.082 514.057 123.97C509.444 121.156 509.869 117.231 515.062 114.693C518.135 113.191 519.425 113.069 522.759 113.967C524.961 114.56 527.686 116.218 528.814 117.652C530.444 119.724 531.787 120.282 535.368 120.377C540.673 120.518 541.132 119.191 537.613 113.895C532.741 106.564 519.574 103.678 510.272 107.902ZM334.871 131.497V155.997H339.371H343.871V131.497V106.997H339.371H334.871V131.497ZM385.44 117.45C388.555 119.491 391.819 126.253 391.849 130.727C391.881 135.459 389.048 141.735 385.853 144.01C382.036 146.728 373.706 146.728 369.889 144.01C364.882 140.444 362.466 130.835 364.938 124.312C366.209 120.955 369.599 117.118 372.371 115.898C375.266 114.623 382.422 115.473 385.44 117.45Z" fill="#126FFF"/>
</svg>
